<?xml version="1.0" encoding="utf-8"?>
<!DOCTYPE svg PUBLIC "-//W3C//DTD SVG 20010904//EN" "http://www.w3.org/TR/2001/REC-SVG-20010904/DTD/svg10.dtd">
<svg version="1.0" xmlns="http://www.w3.org/2000/svg" width="90pt" height="90pt" viewBox="0 0 90 90" style="" preserveAspectRatio="xMidYMid meet">
<g fill="#FFBB04FF" stroke="#FFBB04FF">
<path d="M 33.482 8.816 C 21.544 12.822 12.023 22.437 8.612 33.932 C 6.299 41.726 6.561 49.701 9.387 57.485 L 11.774 64.062 9.491 73.036 C 8.235 77.972 7.526 82.207 7.916 82.448 C 8.305 82.689 12.656 81.860 17.584 80.606 L 26.543 78.326 31.021 80.283 C 37.456 83.094 48.262 83.647 55.521 81.537 C 75.836 75.631 87.425 53.847 81.160 33.343 C 77.738 22.140 67.427 11.986 56.040 8.605 C 49.180 6.567 39.926 6.654 33.482 8.816 M 35.180 28.750 C 36.000 29.713 37.232 31.921 37.919 33.658 C 38.966 36.308 38.916 37.198 37.611 39.190 C 36.183 41.370 36.214 41.822 37.995 44.751 C 40.894 49.519 47.763 54.197 50.059 52.969 C 51.065 52.430 52.165 51.542 52.503 50.995 C 53.501 49.380 57.255 49.858 60.864 52.058 C 63.862 53.886 64.160 54.457 63.601 57.305 C 62.786 61.453 60.583 63.000 55.487 63.000 C 48.532 63.000 42.558 60.281 35.770 54.027 C 26.041 45.063 22.544 35.679 26.615 29.465 C 28.546 26.518 32.965 26.149 35.180 28.750 "/></g>
<g fill="#FFDF05FF" stroke="#FFDF05FF">
<path d="M 72.000 71.888 L 70.500 73.563 72.000 71.888 L 73.500 70.212 72.000 71.888 "/></g>
<g fill="#FFDF05FF" stroke="#FFDF05FF">
<path d="M 72.000 18.000 L 74.000 20.000 72.000 18.000 L 70.000 16.000 72.000 18.000 "/></g>
<g fill="#FFDF05FF" stroke="#FFDF05FF">
<path d="M 18.000 17.888 L 16.500 19.563 18.000 17.888 L 19.500 16.212 18.000 17.888 "/></g>
</svg>
